%
M48
M72
T01C0.02400
T02C0.03200
T03C0.03543
T04C0.03937
T05C0.04000
T06C0.05200
T07C0.12598
%
T01
X286000Y148500
X296000Y153500
X326000Y161000
X381000Y161000
X336000Y118500
X161000Y243500
X168500Y251000
X186000Y291000
X161000Y298500
X226000Y291000
X151000Y351000
X93500Y348500
X91000Y316000
X83500Y316000
X13500Y354750
X93500Y403500
X74750Y431000
X43500Y251000
X526000Y178500
T02
X552250Y181000
X493500Y186000
X491000Y201000
X491000Y211000
X466000Y206000
X466000Y196000
X453500Y186000
X446000Y201000
X446000Y216000
X466000Y216000
X453500Y246000
X466000Y256000
X466000Y266000
X466000Y276000
X446000Y276000
X446000Y261000
X406000Y261000
X406000Y276000
X453500Y301000
X466000Y311000
X466000Y321000
X466000Y331000
X446000Y331000
X446000Y316000
X406000Y316000
X406000Y331000
X453500Y356000
X466000Y366000
X466000Y376000
X466000Y386000
X446000Y391000
X446000Y376000
X406000Y376000
X406000Y391000
X453500Y411000
X466000Y421000
X466000Y431000
X466000Y441000
X446000Y441000
X446000Y426000
X406000Y426000
X406000Y441000
X378500Y451000
X378500Y461000
X491000Y436000
X491000Y426000
X493500Y411000
X491000Y381000
X491000Y371000
X493500Y356000
X491000Y326000
X491000Y316000
X493500Y301000
X491000Y271000
X491000Y261000
X493500Y246000
X548500Y241000
X608500Y241000
X608500Y296000
X548500Y296000
X549750Y351000
X609750Y351000
X611000Y406000
X551000Y406000
X326000Y311000
X326000Y301000
X261000Y331000
X261000Y341000
X216000Y381000
X161000Y361000
X161000Y351000
X136000Y401000
X136000Y411000
X216000Y421000
X226000Y261000
X226000Y246000
X221000Y218500
X221000Y208500
X238500Y208500
X238500Y218500
X240500Y191000
X221500Y191000
X256000Y146000
X266000Y146000
X266000Y126000
X256000Y126000
X246000Y126000
X236000Y126000
X226000Y126000
X216000Y126000
X206000Y126000
X196000Y126000
X166000Y151000
X166000Y161000
X151000Y171000
X128500Y146000
X128500Y136000
X106000Y136000
X76000Y136000
X56000Y126000
X56000Y116000
X56000Y101000
X76000Y101000
X106000Y101000
X116000Y86000
X131000Y58500
X131000Y48500
X166000Y61000
X166000Y71000
X156000Y86000
X196000Y96000
X206000Y96000
X216000Y96000
X226000Y96000
X236000Y96000
X246000Y96000
X256000Y96000
X266000Y96000
X276000Y96000
X286000Y96000
X296000Y96000
X306000Y96000
X316000Y96000
X326000Y96000
X326000Y126000
X316000Y126000
X306000Y126000
X296000Y126000
X286000Y126000
X276000Y126000
X341000Y161000
X351000Y161000
X341000Y181000
X341000Y191000
X336000Y206000
X306000Y206000
X301000Y191000
X301000Y181000
X406000Y161000
X406000Y146000
X446000Y146000
X446000Y161000
X466000Y161000
X466000Y151000
X466000Y141000
X453500Y131000
X446000Y111000
X446000Y96000
X466000Y98500
X466000Y88500
X453500Y76000
X446000Y56000
X466000Y51000
X466000Y41000
X466000Y31000
X453500Y21000
X446000Y36000
X406000Y36000
X406000Y56000
X406000Y96000
X406000Y111000
X466000Y108500
X491000Y101000
X491000Y91000
X493500Y76000
X491000Y46000
X491000Y36000
X493500Y21000
X553500Y16000
X613500Y16000
X613500Y71000
X553500Y71000
X553500Y126000
X613500Y126000
X612250Y181000
X491000Y156000
X491000Y146000
X493500Y131000
X406000Y201000
X406000Y216000
X206000Y61000
X196000Y61000
X246000Y56000
X256000Y56000
X266000Y56000
X276000Y56000
X286000Y56000
X296000Y56000
X306000Y56000
X316000Y56000
X326000Y56000
X326000Y16000
X316000Y16000
X306000Y16000
X296000Y16000
X286000Y16000
X276000Y16000
X266000Y16000
X256000Y16000
X246000Y16000
X206000Y21000
X196000Y21000
X56000Y71000
X111000Y171000
X186000Y246000
X186000Y261000
T03
X141000Y311000
X141000Y321000
X141000Y331000
X141000Y341000
X141000Y351000
X141000Y361000
X161000Y401000
X161000Y411000
X161000Y421000
X161000Y431000
X161000Y441000
X161000Y451000
X291000Y331000
X291000Y321000
X291000Y311000
X291000Y301000
X381000Y301000
X381000Y311000
X381000Y321000
X381000Y331000
X353500Y391000
X353500Y401000
X353500Y411000
X353500Y421000
X353500Y431000
X353500Y441000
X353500Y451000
X353500Y461000
X516000Y431000
X526000Y431000
X566000Y431000
X596000Y431000
X596000Y376000
X566000Y376000
X526000Y376000
X516000Y376000
X516000Y321000
X526000Y321000
X566000Y321000
X596000Y321000
X596000Y266000
X566000Y266000
X526000Y266000
X516000Y266000
X516000Y206000
X526000Y206000
X566000Y206000
X596000Y206000
X596000Y151000
X566000Y151000
X526000Y151000
X516000Y151000
X516000Y96000
X526000Y96000
X566000Y96000
X596000Y96000
X596000Y41000
X566000Y41000
X526000Y41000
X516000Y41000
T04
X333795Y222142
X308205Y222142
X308205Y239858
X333795Y239858
X136000Y241000
X136000Y231000
X136000Y216000
X136000Y206000
X221000Y36000
X231000Y36000
T05
X246000Y71000
X256000Y71000
X266000Y71000
X276000Y71000
X286000Y71000
X296000Y71000
X306000Y71000
X316000Y71000
X326000Y71000
X381000Y81000
X381000Y91000
X381000Y101000
X381000Y111000
X381000Y121000
X381000Y131000
X376000Y41000
X386000Y41000
X386000Y31000
X376000Y31000
X376000Y21000
X386000Y21000
X71000Y201000
X61000Y201000
X61000Y211000
X71000Y211000
X71000Y221000
X61000Y221000
X61000Y231000
X71000Y231000
X71000Y241000
X61000Y241000
X61000Y251000
X71000Y251000
X71000Y261000
X61000Y261000
X61000Y271000
X71000Y271000
X71000Y281000
X61000Y281000
X61000Y291000
X71000Y291000
X246000Y311000
X246000Y321000
X246000Y331000
X246000Y341000
X246000Y401000
X246000Y411000
X246000Y421000
T06
X643500Y410400
X643500Y390700
X643500Y371000
X643500Y351300
X643500Y331500
X643500Y160400
X643500Y140700
X643500Y121000
X643500Y101300
X643500Y81500
X23500Y81100
X23500Y100900
T07
X12130Y12170
X508500Y16000
X631000Y16000
X654750Y12250
X631000Y456000
X654750Y459750
X508500Y456000
X12250Y459750
M30
