G75*
%MOIN*%
%OFA0B0*%
%FSLAX25Y25*%
%IPPOS*%
%LPD*%
%AMOC8*
5,1,8,0,0,1.08239X$1,22.5*
%
%ADD10C,0.13398*%
%ADD11C,0.06115*%
%ADD12C,0.07400*%
%ADD13C,0.09400*%
%ADD14OC8,0.05600*%
%ADD15C,0.08600*%
%ADD16OC8,0.07100*%
%ADD17C,0.07100*%
%ADD18C,0.06800*%
%ADD19C,0.06706*%
%ADD20C,0.05600*%
%ADD21C,0.05600*%
%ADD22C,0.06800*%
%ADD23OC8,0.06800*%
%ADD24C,0.04600*%
D10*
X0012130Y0012170D03*
X0508500Y0016000D03*
X0631000Y0016000D03*
X0654750Y0012250D03*
X0631000Y0456000D03*
X0654750Y0459750D03*
X0508500Y0456000D03*
X0012250Y0459750D03*
D11*
X0138343Y0361000D02*
X0143657Y0361000D01*
X0143657Y0351000D02*
X0138343Y0351000D01*
X0138343Y0341000D02*
X0143657Y0341000D01*
X0143657Y0331000D02*
X0138343Y0331000D01*
X0138343Y0321000D02*
X0143657Y0321000D01*
X0143657Y0311000D02*
X0138343Y0311000D01*
X0158343Y0401000D02*
X0163657Y0401000D01*
X0163657Y0411000D02*
X0158343Y0411000D01*
X0158343Y0421000D02*
X0163657Y0421000D01*
X0163657Y0431000D02*
X0158343Y0431000D01*
X0158343Y0441000D02*
X0163657Y0441000D01*
X0163657Y0451000D02*
X0158343Y0451000D01*
X0288343Y0331000D02*
X0293657Y0331000D01*
X0293657Y0321000D02*
X0288343Y0321000D01*
X0288343Y0311000D02*
X0293657Y0311000D01*
X0293657Y0301000D02*
X0288343Y0301000D01*
X0378343Y0301000D02*
X0383657Y0301000D01*
X0383657Y0311000D02*
X0378343Y0311000D01*
X0378343Y0321000D02*
X0383657Y0321000D01*
X0383657Y0331000D02*
X0378343Y0331000D01*
X0356157Y0391000D02*
X0350843Y0391000D01*
X0350843Y0401000D02*
X0356157Y0401000D01*
X0356157Y0411000D02*
X0350843Y0411000D01*
X0350843Y0421000D02*
X0356157Y0421000D01*
X0356157Y0431000D02*
X0350843Y0431000D01*
X0350843Y0441000D02*
X0356157Y0441000D01*
X0356157Y0451000D02*
X0350843Y0451000D01*
X0350843Y0461000D02*
X0356157Y0461000D01*
D12*
X0516000Y0434300D02*
X0516000Y0427700D01*
X0526000Y0427700D02*
X0526000Y0434300D01*
X0526000Y0379300D02*
X0526000Y0372700D01*
X0516000Y0372700D02*
X0516000Y0379300D01*
X0516000Y0324300D02*
X0516000Y0317700D01*
X0526000Y0317700D02*
X0526000Y0324300D01*
X0526000Y0269300D02*
X0526000Y0262700D01*
X0516000Y0262700D02*
X0516000Y0269300D01*
X0516000Y0209300D02*
X0516000Y0202700D01*
X0526000Y0202700D02*
X0526000Y0209300D01*
X0526000Y0154300D02*
X0526000Y0147700D01*
X0516000Y0147700D02*
X0516000Y0154300D01*
X0516000Y0099300D02*
X0516000Y0092700D01*
X0526000Y0092700D02*
X0526000Y0099300D01*
X0526000Y0044300D02*
X0526000Y0037700D01*
X0516000Y0037700D02*
X0516000Y0044300D01*
D13*
X0566000Y0045300D02*
X0566000Y0036700D01*
X0596000Y0036700D02*
X0596000Y0045300D01*
X0596000Y0091700D02*
X0596000Y0100300D01*
X0566000Y0100300D02*
X0566000Y0091700D01*
X0566000Y0146700D02*
X0566000Y0155300D01*
X0596000Y0155300D02*
X0596000Y0146700D01*
X0596000Y0201700D02*
X0596000Y0210300D01*
X0566000Y0210300D02*
X0566000Y0201700D01*
X0566000Y0261700D02*
X0566000Y0270300D01*
X0596000Y0270300D02*
X0596000Y0261700D01*
X0596000Y0316700D02*
X0596000Y0325300D01*
X0566000Y0325300D02*
X0566000Y0316700D01*
X0566000Y0371700D02*
X0566000Y0380300D01*
X0596000Y0380300D02*
X0596000Y0371700D01*
X0596000Y0426700D02*
X0596000Y0435300D01*
X0566000Y0435300D02*
X0566000Y0426700D01*
D14*
X0493500Y0411000D03*
X0491000Y0426000D03*
X0491000Y0436000D03*
X0453500Y0411000D03*
X0446000Y0426000D03*
X0446000Y0441000D03*
X0406000Y0441000D03*
X0406000Y0426000D03*
X0378500Y0451000D03*
X0378500Y0461000D03*
X0406000Y0391000D03*
X0406000Y0376000D03*
X0446000Y0376000D03*
X0446000Y0391000D03*
X0453500Y0356000D03*
X0446000Y0331000D03*
X0446000Y0316000D03*
X0453500Y0301000D03*
X0446000Y0276000D03*
X0446000Y0261000D03*
X0453500Y0246000D03*
X0446000Y0216000D03*
X0446000Y0201000D03*
X0453500Y0186000D03*
X0446000Y0161000D03*
X0446000Y0146000D03*
X0453500Y0131000D03*
X0446000Y0111000D03*
X0446000Y0096000D03*
X0453500Y0076000D03*
X0446000Y0056000D03*
X0446000Y0036000D03*
X0453500Y0021000D03*
X0493500Y0021000D03*
X0491000Y0036000D03*
X0491000Y0046000D03*
X0493500Y0076000D03*
X0491000Y0091000D03*
X0491000Y0101000D03*
X0493500Y0131000D03*
X0491000Y0146000D03*
X0491000Y0156000D03*
X0493500Y0186000D03*
X0491000Y0201000D03*
X0491000Y0211000D03*
X0493500Y0246000D03*
X0491000Y0261000D03*
X0491000Y0271000D03*
X0493500Y0301000D03*
X0491000Y0316000D03*
X0491000Y0326000D03*
X0493500Y0356000D03*
X0491000Y0371000D03*
X0491000Y0381000D03*
X0406000Y0331000D03*
X0406000Y0316000D03*
X0406000Y0276000D03*
X0406000Y0261000D03*
X0406000Y0216000D03*
X0406000Y0201000D03*
X0406000Y0161000D03*
X0406000Y0146000D03*
X0406000Y0111000D03*
X0406000Y0096000D03*
X0406000Y0056000D03*
X0406000Y0036000D03*
X0326000Y0016000D03*
X0316000Y0016000D03*
X0306000Y0016000D03*
X0296000Y0016000D03*
X0286000Y0016000D03*
X0276000Y0016000D03*
X0266000Y0016000D03*
X0256000Y0016000D03*
X0246000Y0016000D03*
X0206000Y0021000D03*
X0196000Y0021000D03*
X0246000Y0056000D03*
X0256000Y0056000D03*
X0266000Y0056000D03*
X0276000Y0056000D03*
X0286000Y0056000D03*
X0296000Y0056000D03*
X0306000Y0056000D03*
X0316000Y0056000D03*
X0326000Y0056000D03*
X0206000Y0061000D03*
X0196000Y0061000D03*
X0166000Y0061000D03*
X0166000Y0071000D03*
X0156000Y0086000D03*
X0116000Y0086000D03*
X0166000Y0151000D03*
X0166000Y0161000D03*
X0151000Y0171000D03*
X0111000Y0171000D03*
X0186000Y0246000D03*
X0186000Y0261000D03*
X0226000Y0261000D03*
X0226000Y0246000D03*
X0221000Y0218500D03*
X0221000Y0208500D03*
X0238500Y0208500D03*
X0238500Y0218500D03*
X0301000Y0191000D03*
X0301000Y0181000D03*
X0341000Y0181000D03*
X0341000Y0191000D03*
X0341000Y0161000D03*
X0351000Y0161000D03*
X0266000Y0146000D03*
X0256000Y0146000D03*
X0326000Y0301000D03*
X0326000Y0311000D03*
X0261000Y0331000D03*
X0261000Y0341000D03*
X0216000Y0381000D03*
X0161000Y0361000D03*
X0161000Y0351000D03*
X0136000Y0401000D03*
X0136000Y0411000D03*
X0216000Y0421000D03*
D15*
X0639600Y0410400D02*
X0647400Y0410400D01*
X0647400Y0390700D02*
X0639600Y0390700D01*
X0639600Y0371000D02*
X0647400Y0371000D01*
X0647400Y0351300D02*
X0639600Y0351300D01*
X0639600Y0331500D02*
X0647400Y0331500D01*
X0647400Y0160400D02*
X0639600Y0160400D01*
X0639600Y0140700D02*
X0647400Y0140700D01*
X0647400Y0121000D02*
X0639600Y0121000D01*
X0639600Y0101300D02*
X0647400Y0101300D01*
X0647400Y0081500D02*
X0639600Y0081500D01*
X0027400Y0081100D02*
X0019600Y0081100D01*
X0019600Y0100900D02*
X0027400Y0100900D01*
D16*
X0056000Y0126000D03*
X0128500Y0146000D03*
X0131000Y0058500D03*
D17*
X0131000Y0048500D03*
X0056000Y0116000D03*
X0128500Y0136000D03*
D18*
X0246000Y0074000D02*
X0246000Y0068000D01*
X0256000Y0068000D02*
X0256000Y0074000D01*
X0266000Y0074000D02*
X0266000Y0068000D01*
X0276000Y0068000D02*
X0276000Y0074000D01*
X0286000Y0074000D02*
X0286000Y0068000D01*
X0296000Y0068000D02*
X0296000Y0074000D01*
X0306000Y0074000D02*
X0306000Y0068000D01*
X0316000Y0068000D02*
X0316000Y0074000D01*
X0326000Y0074000D02*
X0326000Y0068000D01*
X0378000Y0081000D02*
X0384000Y0081000D01*
X0384000Y0091000D02*
X0378000Y0091000D01*
X0378000Y0101000D02*
X0384000Y0101000D01*
X0384000Y0111000D02*
X0378000Y0111000D01*
X0378000Y0121000D02*
X0384000Y0121000D01*
X0384000Y0131000D02*
X0378000Y0131000D01*
X0249000Y0311000D02*
X0243000Y0311000D01*
X0243000Y0321000D02*
X0249000Y0321000D01*
X0249000Y0331000D02*
X0243000Y0331000D01*
X0243000Y0341000D02*
X0249000Y0341000D01*
X0249000Y0401000D02*
X0243000Y0401000D01*
X0243000Y0411000D02*
X0249000Y0411000D01*
X0249000Y0421000D02*
X0243000Y0421000D01*
D19*
X0305252Y0239858D02*
X0311157Y0239858D01*
X0330843Y0239858D02*
X0336748Y0239858D01*
X0336748Y0222142D02*
X0330843Y0222142D01*
X0311157Y0222142D02*
X0305252Y0222142D01*
X0138953Y0216000D02*
X0133047Y0216000D01*
X0133047Y0206000D02*
X0138953Y0206000D01*
X0138953Y0231000D02*
X0133047Y0231000D01*
X0133047Y0241000D02*
X0138953Y0241000D01*
X0221000Y0038953D02*
X0221000Y0033047D01*
X0231000Y0033047D02*
X0231000Y0038953D01*
D20*
X0226000Y0093600D02*
X0226000Y0098400D01*
X0216000Y0098400D02*
X0216000Y0093600D01*
X0206000Y0093600D02*
X0206000Y0098400D01*
X0196000Y0098400D02*
X0196000Y0093600D01*
X0196000Y0123600D02*
X0196000Y0128400D01*
X0206000Y0128400D02*
X0206000Y0123600D01*
X0216000Y0123600D02*
X0216000Y0128400D01*
X0226000Y0128400D02*
X0226000Y0123600D01*
X0236000Y0123600D02*
X0236000Y0128400D01*
X0246000Y0128400D02*
X0246000Y0123600D01*
X0256000Y0123600D02*
X0256000Y0128400D01*
X0266000Y0128400D02*
X0266000Y0123600D01*
X0276000Y0123600D02*
X0276000Y0128400D01*
X0286000Y0128400D02*
X0286000Y0123600D01*
X0296000Y0123600D02*
X0296000Y0128400D01*
X0306000Y0128400D02*
X0306000Y0123600D01*
X0316000Y0123600D02*
X0316000Y0128400D01*
X0326000Y0128400D02*
X0326000Y0123600D01*
X0326000Y0098400D02*
X0326000Y0093600D01*
X0316000Y0093600D02*
X0316000Y0098400D01*
X0306000Y0098400D02*
X0306000Y0093600D01*
X0296000Y0093600D02*
X0296000Y0098400D01*
X0286000Y0098400D02*
X0286000Y0093600D01*
X0276000Y0093600D02*
X0276000Y0098400D01*
X0266000Y0098400D02*
X0266000Y0093600D01*
X0256000Y0093600D02*
X0256000Y0098400D01*
X0246000Y0098400D02*
X0246000Y0093600D01*
X0236000Y0093600D02*
X0236000Y0098400D01*
X0108400Y0101000D02*
X0103600Y0101000D01*
X0078400Y0101000D02*
X0073600Y0101000D01*
X0056000Y0098600D02*
X0056000Y0103400D01*
X0056000Y0073400D02*
X0056000Y0068600D01*
X0073600Y0136000D02*
X0078400Y0136000D01*
X0103600Y0136000D02*
X0108400Y0136000D01*
X0303600Y0206000D02*
X0308400Y0206000D01*
X0333600Y0206000D02*
X0338400Y0206000D01*
X0463600Y0206000D02*
X0468400Y0206000D01*
X0468400Y0196000D02*
X0463600Y0196000D01*
X0463600Y0216000D02*
X0468400Y0216000D01*
X0468400Y0256000D02*
X0463600Y0256000D01*
X0463600Y0266000D02*
X0468400Y0266000D01*
X0468400Y0276000D02*
X0463600Y0276000D01*
X0463600Y0311000D02*
X0468400Y0311000D01*
X0468400Y0321000D02*
X0463600Y0321000D01*
X0463600Y0331000D02*
X0468400Y0331000D01*
X0468400Y0366000D02*
X0463600Y0366000D01*
X0463600Y0376000D02*
X0468400Y0376000D01*
X0468400Y0386000D02*
X0463600Y0386000D01*
X0463600Y0421000D02*
X0468400Y0421000D01*
X0468400Y0431000D02*
X0463600Y0431000D01*
X0463600Y0441000D02*
X0468400Y0441000D01*
X0551000Y0408400D02*
X0551000Y0403600D01*
X0611000Y0403600D02*
X0611000Y0408400D01*
X0609750Y0353400D02*
X0609750Y0348600D01*
X0549750Y0348600D02*
X0549750Y0353400D01*
X0548500Y0298400D02*
X0548500Y0293600D01*
X0608500Y0293600D02*
X0608500Y0298400D01*
X0608500Y0243400D02*
X0608500Y0238600D01*
X0548500Y0238600D02*
X0548500Y0243400D01*
X0552250Y0183400D02*
X0552250Y0178600D01*
X0612250Y0178600D02*
X0612250Y0183400D01*
X0613500Y0128400D02*
X0613500Y0123600D01*
X0553500Y0123600D02*
X0553500Y0128400D01*
X0553500Y0073400D02*
X0553500Y0068600D01*
X0613500Y0068600D02*
X0613500Y0073400D01*
X0613500Y0018400D02*
X0613500Y0013600D01*
X0553500Y0013600D02*
X0553500Y0018400D01*
X0468400Y0031000D02*
X0463600Y0031000D01*
X0463600Y0041000D02*
X0468400Y0041000D01*
X0468400Y0051000D02*
X0463600Y0051000D01*
X0463600Y0088500D02*
X0468400Y0088500D01*
X0468400Y0098500D02*
X0463600Y0098500D01*
X0463600Y0108500D02*
X0468400Y0108500D01*
X0468400Y0141000D02*
X0463600Y0141000D01*
X0463600Y0151000D02*
X0468400Y0151000D01*
X0468400Y0161000D02*
X0463600Y0161000D01*
D21*
X0240500Y0191000D03*
X0221500Y0191000D03*
D22*
X0386000Y0021000D03*
D23*
X0376000Y0021000D03*
X0376000Y0031000D03*
X0386000Y0031000D03*
X0386000Y0041000D03*
X0376000Y0041000D03*
X0071000Y0201000D03*
X0061000Y0201000D03*
X0061000Y0211000D03*
X0071000Y0211000D03*
X0071000Y0221000D03*
X0061000Y0221000D03*
X0061000Y0231000D03*
X0071000Y0231000D03*
X0071000Y0241000D03*
X0061000Y0241000D03*
X0061000Y0251000D03*
X0071000Y0251000D03*
X0071000Y0261000D03*
X0061000Y0261000D03*
X0061000Y0271000D03*
X0071000Y0271000D03*
X0071000Y0281000D03*
X0061000Y0281000D03*
X0061000Y0291000D03*
X0071000Y0291000D03*
D24*
X0083500Y0316000D03*
X0091000Y0316000D03*
X0093500Y0348500D03*
X0151000Y0351000D03*
X0161000Y0298500D03*
X0186000Y0291000D03*
X0226000Y0291000D03*
X0168500Y0251000D03*
X0161000Y0243500D03*
X0043500Y0251000D03*
X0013500Y0354750D03*
X0093500Y0403500D03*
X0074750Y0431000D03*
X0326000Y0161000D03*
X0296000Y0153500D03*
X0286000Y0148500D03*
X0336000Y0118500D03*
X0381000Y0161000D03*
X0526000Y0178500D03*
M02*
